<?xml version="1.0" standalone="no"?>
<!DOCTYPE svg PUBLIC "-//W3C//DTD SVG 20010904//EN"
 "http://www.w3.org/TR/2001/REC-SVG-20010904/DTD/svg10.dtd">
<svg version="1.0" xmlns="http://www.w3.org/2000/svg"
 width="500.000000pt" height="500.000000pt" viewBox="0 0 500.000000 500.000000"
 preserveAspectRatio="xMidYMid meet">

<g transform="translate(0.000000,500.000000) scale(0.100000,-0.100000)"
fill="#000000" stroke="none">
<path d="M3030 2960 l0 -150 40 0 40 0 0 150 0 150 -40 0 -40 0 0 -150z"/>
<path d="M1750 2955 l0 -145 40 0 39 0 3 63 3 62 43 -62 43 -63 50 0 c57 0 57
-6 -9 87 l-44 63 46 65 c25 36 46 68 46 70 0 3 -20 5 -45 5 -43 0 -46 -2 -81
-55 -20 -30 -41 -55 -45 -55 -5 0 -9 25 -9 55 l0 55 -40 0 -40 0 0 -145z"/>
<path d="M933 3036 c-24 -30 -31 -90 -13 -101 6 -3 10 -11 10 -17 0 -7 -6 -6
-15 2 -13 11 -15 8 -15 -15 0 -17 11 -37 31 -56 24 -22 27 -29 14 -29 -28 0 2
-30 53 -51 58 -25 70 -24 44 4 -44 47 -75 127 -81 211 l-6 81 -22 -29z"/>
<path d="M1338 2978 c-5 -88 -23 -137 -73 -197 -17 -19 -22 -31 -13 -31 22 1
92 36 107 53 12 15 11 17 -5 17 -15 0 -12 6 14 26 23 19 32 34 32 55 0 17 -4
28 -9 25 -5 -4 -7 11 -4 32 5 38 -17 102 -36 102 -5 0 -11 -37 -13 -82z"/>
<path d="M2093 3030 c-50 -20 -69 -119 -33 -177 22 -37 74 -52 111 -32 17 9
24 9 27 0 2 -6 21 -11 43 -11 l39 0 0 115 0 115 -39 0 c-22 0 -41 -5 -43 -11
-3 -9 -9 -9 -25 0 -25 13 -49 13 -80 1z m92 -105 c0 -25 -4 -30 -25 -30 -16 0
-26 6 -28 18 -6 30 6 49 30 45 18 -2 23 -9 23 -33z"/>
<path d="M2320 2925 l0 -115 45 0 45 0 0 70 c0 58 3 71 19 80 34 17 51 -12 51
-86 l0 -64 40 0 40 0 0 70 c0 56 3 71 18 79 11 6 24 6 35 0 14 -8 17 -24 17
-79 l0 -70 40 0 40 0 0 90 c0 76 -3 93 -20 110 -31 31 -69 36 -110 13 -30 -16
-38 -17 -48 -6 -22 23 -64 27 -94 10 -24 -14 -28 -14 -28 -2 0 11 -12 15 -45
15 l-45 0 0 -115z"/>
<path d="M2793 3028 c-26 -13 -53 -65 -53 -103 0 -84 79 -141 138 -99 20 14
22 14 22 0 0 -12 10 -16 40 -16 l40 0 0 115 0 115 -40 0 c-30 0 -40 -4 -40
-16 0 -14 -2 -14 -22 0 -26 18 -53 19 -85 4z m98 -84 c17 -21 0 -49 -32 -49
-24 0 -36 23 -25 51 7 19 40 18 57 -2z"/>
<path d="M3200 3023 c-47 -25 -68 -78 -51 -133 30 -100 183 -105 220 -7 39
104 -68 192 -169 140z m85 -98 c0 -25 -4 -30 -25 -30 -16 0 -26 6 -28 18 -6
30 6 49 30 45 18 -2 23 -9 23 -33z"/>
<path d="M3429 3011 c-25 -26 -29 -37 -29 -86 0 -49 4 -60 29 -86 33 -33 65
-37 100 -13 22 16 22 16 19 -12 l-3 -29 -67 3 c-77 4 -88 -9 -44 -53 48 -48
141 -44 180 8 18 25 21 45 24 163 l4 134 -46 0 c-35 0 -46 -4 -46 -16 0 -14
-2 -14 -22 0 -34 24 -66 19 -99 -13z m116 -86 c0 -35 -31 -47 -51 -20 -18 25
0 57 29 53 17 -2 22 -10 22 -33z"/>
<path d="M3680 2960 c0 -101 16 -136 65 -146 25 -4 43 -1 60 10 22 14 25 15
25 1 0 -11 11 -15 45 -15 l45 0 0 115 0 115 -45 0 -45 0 0 -69 c0 -72 -14 -99
-45 -87 -12 4 -15 23 -15 81 l0 75 -45 0 -45 0 0 -80z"/>
<path d="M4014 3030 c-67 -27 -86 -125 -35 -182 26 -29 36 -33 79 -33 51 0 82
17 104 58 9 18 6 19 -58 16 -47 -3 -68 0 -71 9 -4 9 14 12 66 12 l71 0 0 30
c0 73 -82 120 -156 90z m71 -70 c4 -6 -7 -10 -25 -10 -18 0 -29 4 -25 10 3 6
15 10 25 10 10 0 22 -4 25 -10z"/>
<path d="M1228 2977 l-57 -42 -1 -115 c0 -113 0 -114 18 -89 9 15 31 47 48 70
30 43 58 108 50 116 -2 3 -18 -3 -36 -12 -48 -25 -49 -10 -1 39 64 65 51 85
-21 33z"/>
<path d="M1070 2650 c0 -16 5 -30 10 -30 18 0 10 -39 -17 -89 l-28 -49 50 -72
c56 -81 59 -79 53 32 -2 37 0 68 4 68 4 0 11 0 16 0 4 0 5 -38 3 -85 -1 -47
-1 -85 2 -85 8 0 100 132 100 144 0 6 -12 30 -26 53 -27 43 -35 83 -17 83 6 0
10 14 10 30 l0 30 -80 0 -80 0 0 -30z"/>
<path d="M2365 2621 c-7 -12 12 -24 25 -16 11 7 4 25 -10 25 -5 0 -11 -4 -15
-9z"/>
<path d="M3507 2608 c-18 -30 -11 -118 9 -118 9 0 14 13 15 38 1 20 3 52 5 70
4 37 -9 42 -29 10z"/>
<path d="M4105 2621 c-7 -12 12 -24 25 -16 11 7 4 25 -10 25 -5 0 -11 -4 -15
-9z"/>
<path d="M1830 2555 c0 -51 3 -65 15 -65 12 0 15 14 15 65 0 51 -3 65 -15 65
-12 0 -15 -14 -15 -65z"/>
<path d="M1990 2557 l0 -63 35 -1 c27 -1 40 5 52 23 14 22 14 26 -2 50 -13 20
-22 24 -41 20 -19 -5 -24 -3 -24 14 0 11 -4 20 -10 20 -6 0 -10 -28 -10 -63z
m68 -14 c5 -17 -26 -29 -40 -15 -6 6 -7 15 -3 22 9 14 37 9 43 -7z"/>
<path d="M2790 2555 c0 -51 3 -65 15 -65 10 0 15 10 15 33 0 38 6 48 26 40 8
-3 14 -19 14 -39 0 -24 5 -34 15 -34 18 0 20 36 5 75 -8 22 -15 26 -35 23 -19
-4 -25 -1 -25 13 0 11 -7 19 -15 19 -12 0 -15 -14 -15 -65z"/>
<path d="M3710 2555 c0 -51 3 -65 15 -65 12 0 15 14 15 65 0 51 -3 65 -15 65
-12 0 -15 -14 -15 -65z"/>
<path d="M1612 2594 c-52 -36 -5 -120 55 -98 15 5 28 15 31 22 3 9 -6 11 -38
6 -41 -7 -42 -7 -38 22 3 27 6 29 41 27 40 -3 49 10 18 27 -27 14 -43 13 -69
-6z"/>
<path d="M2297 2597 c-9 -23 8 -90 25 -101 21 -13 36 0 20 16 -16 16 -15 55 0
60 9 3 8 9 -4 21 -20 20 -34 22 -41 4z"/>
<path d="M2680 2601 c0 -5 9 -11 20 -14 16 -4 20 -14 20 -51 0 -25 5 -46 10
-46 6 0 10 23 10 50 0 38 4 50 15 50 8 0 15 5 15 10 0 6 -20 10 -45 10 -25 0
-45 -4 -45 -9z"/>
<path d="M3075 2574 c-23 -55 -29 -84 -17 -84 6 0 14 5 17 10 3 6 17 10 31 10
13 0 24 -4 24 -10 0 -5 7 -10 16 -10 16 0 16 3 -11 80 -17 49 -40 50 -60 4z
m45 -36 c0 -5 -7 -8 -15 -8 -15 0 -20 21 -8 33 7 7 23 -11 23 -25z"/>
<path d="M3258 2598 c-3 -7 -3 -32 0 -55 3 -31 9 -44 24 -49 21 -6 41 6 21 13
-17 6 -17 60 -1 65 9 3 8 9 -4 21 -20 20 -34 22 -40 5z"/>
<path d="M3382 2594 c-44 -31 -16 -104 40 -104 24 0 58 35 58 60 0 25 -34 60
-58 60 -10 0 -28 -7 -40 -16z m63 -44 c0 -18 -6 -26 -23 -28 -24 -4 -38 18
-28 44 3 9 15 14 28 12 17 -2 23 -10 23 -28z"/>
<path d="M3600 2550 c0 -60 0 -60 29 -60 16 0 36 3 45 6 18 7 22 39 6 49 -8 5
-7 11 1 21 17 21 -7 44 -47 44 l-34 0 0 -60z m58 22 c2 -7 -6 -12 -17 -12 -21
0 -27 11 -14 24 9 9 26 2 31 -12z m2 -48 c0 -9 -7 -14 -17 -12 -25 5 -28 28
-4 28 12 0 21 -6 21 -16z"/>
<path d="M1738 2579 c-25 -14 -23 -65 2 -79 23 -12 60 -5 60 12 0 6 -9 8 -20
5 -11 -3 -23 -1 -26 4 -3 5 9 9 25 9 35 0 41 19 15 44 -18 18 -32 20 -56 5z
m37 -19 c3 -5 -3 -10 -15 -10 -12 0 -18 5 -15 10 3 6 10 10 15 10 5 0 12 -4
15 -10z"/>
<path d="M1898 2579 c-25 -14 -23 -65 2 -79 23 -12 60 -5 60 12 0 6 -9 8 -20
5 -11 -3 -23 -1 -26 4 -3 5 9 9 25 9 35 0 41 19 15 44 -18 18 -32 20 -56 5z
m37 -19 c3 -5 -3 -10 -15 -10 -12 0 -18 5 -15 10 3 6 10 10 15 10 5 0 12 -4
15 -10z"/>
<path d="M2100 2540 c0 -38 4 -50 15 -50 10 0 15 10 15 30 0 18 6 33 15 36 26
10 16 29 -15 31 -30 2 -30 1 -30 -47z"/>
<path d="M2183 2564 c-14 -22 -14 -26 0 -48 12 -18 25 -24 52 -23 35 1 35 1
35 47 0 46 0 46 -35 47 -27 1 -40 -5 -52 -23z m62 -14 c4 -6 1 -18 -6 -26 -11
-13 -14 -13 -27 0 -8 8 -11 19 -8 25 9 14 33 14 41 1z"/>
<path d="M2370 2540 c0 -27 5 -50 10 -50 6 0 10 23 10 50 0 28 -4 50 -10 50
-5 0 -10 -22 -10 -50z"/>
<path d="M2420 2540 c0 -38 4 -50 15 -50 10 0 15 10 15 33 0 19 3 37 7 40 12
13 33 -15 33 -44 0 -16 5 -29 10 -29 6 0 10 20 10 44 0 47 -5 52 -62 55 -27 1
-28 -1 -28 -49z"/>
<path d="M2541 2577 c-16 -16 -14 -62 4 -77 8 -7 24 -10 35 -7 14 3 20 0 20
-10 0 -12 -7 -14 -35 -9 -19 4 -35 5 -35 2 0 -12 33 -36 50 -36 35 0 50 28 50
90 l0 58 -39 0 c-21 0 -43 -4 -50 -11z m59 -38 c0 -12 -7 -19 -20 -19 -19 0
-28 28 -14 43 11 11 34 -5 34 -24z"/>
<path d="M2914 2565 c-15 -23 -15 -27 0 -50 17 -25 31 -30 60 -19 26 10 18 27
-8 20 -14 -3 -27 -2 -31 3 -3 5 9 11 27 13 37 4 45 19 23 42 -24 23 -52 20
-71 -9z m51 -5 c3 -5 -3 -10 -15 -10 -12 0 -18 5 -15 10 3 6 10 10 15 10 5 0
12 -4 15 -10z"/>
<path d="M3180 2539 c0 -37 4 -49 15 -49 10 0 15 11 15 35 0 24 5 35 15 35 30
0 15 27 -15 28 -29 1 -30 0 -30 -49z"/>
<path d="M3778 2579 c-26 -15 -23 -65 3 -80 34 -18 69 3 69 40 0 42 -36 62
-72 40z m50 -36 c5 -17 -26 -29 -40 -15 -6 6 -7 15 -3 22 9 14 37 9 43 -7z"/>
<path d="M3881 2577 c-16 -16 -13 -63 4 -77 8 -6 23 -9 35 -5 22 7 27 -4 9
-22 -9 -9 -16 -9 -30 0 -25 16 -38 -1 -14 -19 47 -34 85 5 85 87 l0 46 -39 0
c-22 0 -45 -5 -50 -10z m55 -46 c-9 -14 -33 -14 -41 -1 -4 6 -1 18 6 26 11 13
14 13 27 0 8 -8 11 -19 8 -25z"/>
<path d="M3993 2564 c-14 -22 -14 -26 2 -50 13 -20 22 -24 41 -20 26 7 31 -3
12 -22 -8 -8 -17 -8 -30 -1 -25 13 -35 4 -18 -16 15 -18 51 -20 68 -3 7 7 12
39 12 73 l0 61 -35 1 c-27 1 -40 -5 -52 -23z m63 -33 c-9 -14 -33 -14 -41 -1
-4 6 -1 18 6 26 11 13 14 13 27 0 8 -8 11 -19 8 -25z"/>
<path d="M4110 2540 c0 -27 5 -50 10 -50 6 0 10 23 10 50 0 28 -4 50 -10 50
-5 0 -10 -22 -10 -50z"/>
<path d="M4160 2540 c0 -38 4 -50 15 -50 10 0 15 10 15 33 0 19 3 37 7 40 12
13 33 -15 33 -44 0 -16 5 -29 10 -29 6 0 10 20 10 44 0 47 -5 52 -62 55 -27 1
-28 -1 -28 -49z"/>
<path d="M4285 2573 c-31 -30 -3 -90 36 -80 13 3 19 0 19 -10 0 -12 -7 -14
-30 -9 -32 6 -38 -2 -18 -22 17 -17 44 -15 62 4 11 10 16 34 16 74 l0 58 -35
0 c-20 0 -42 -7 -50 -15z m53 -31 c3 -17 -2 -22 -17 -22 -14 0 -21 6 -21 18 0
38 33 41 38 4z"/>
</g>
</svg>
